{"glyphs":{":":{"x_min":0,"x_max":257,"ha":257,"o":"m 173 405 q 150 405 136 419 q 121 433 121 460 q 121 498 140 520 q 158 541 184 541 q 207 541 222 527 q 237 513 237 486 q 237 442 216 424 q 196 405 173 405 z m 83 -8 q 60 -8 46 6 q 31 20 31 48 q 31 86 50 107 q 68 128 95 128 q 118 128 132 114 q 147 100 147 72 q 147 28 126 10 q 106 -8 83 -8 z"},"$":{"x_min":0,"x_max":490,"ha":490,"o":"m 155 -79 l 180 37 q 107 42 68 78 q 30 115 30 165 q 30 209 54 231 q 78 253 104 253 q 102 188 126 142 q 149 96 190 86 l 241 333 q 191 361 160 400 q 130 439 130 495 q 130 559 155 600 q 180 640 222 660 q 265 681 318 684 l 333 760 l 377 760 l 361 684 q 420 679 452 654 q 484 630 485 588 q 485 557 465 536 q 445 516 408 516 q 408 541 404 568 q 400 594 388 614 q 376 634 351 640 l 301 398 l 312 392 q 369 359 398 323 q 427 287 427 232 q 427 171 400 128 q 372 86 326 62 q 280 39 223 36 l 199 -79 z m 263 421 l 307 641 q 267 634 242 600 q 216 566 216 511 q 216 455 263 421 z m 234 84 q 284 90 312 126 q 340 163 340 215 q 340 248 325 270 q 310 292 280 311 z"},"?":{"x_min":0,"x_max":434,"ha":434,"o":"m 171 204 l 192 349 q 274 384 324 438 q 374 491 374 573 q 374 622 352 648 q 331 675 298 675 q 264 675 242 656 q 221 636 210 604 q 198 571 191 533 q 157 533 140 548 q 123 564 123 591 q 123 626 145 656 q 167 686 208 705 q 249 724 306 724 q 381 724 424 686 q 468 649 468 573 q 468 510 439 462 q 410 415 360 380 q 311 344 249 317 l 220 204 z m 167 -8 q 144 -8 130 6 q 115 20 115 48 q 115 86 134 107 q 153 128 179 128 q 202 128 216 114 q 231 100 231 72 q 231 28 211 10 q 191 -8 167 -8 z"},"<":{"x_min":0,"x_max":465,"ha":465,"o":"m 426 111 l 60 340 l 60 375 l 426 605 l 426 540 l 141 357 l 426 177 z"},"'":{"x_min":0,"x_max":196,"ha":196,"o":"m 124 482 l 147 714 l 245 714 l 166 482 z"},"=":{"x_min":0,"x_max":465,"ha":465,"o":"m 60 424 l 60 482 l 427 482 l 427 424 z m 60 232 l 60 290 l 427 290 l 427 232 z"},"a":{"x_min":0,"x_max":510,"ha":510,"o":"m 149 -10 q 94 -10 67 38 q 40 86 40 157 q 40 205 52 258 q 64 312 87 363 q 110 414 143 456 q 176 497 218 522 q 260 546 311 546 q 342 546 370 536 q 397 526 414 510 l 454 536 l 484 536 l 416 214 q 414 203 410 181 q 405 159 402 136 q 399 112 399 98 q 399 51 427 51 q 440 51 454 58 q 469 66 485 77 l 500 47 q 480 29 448 10 q 415 -10 378 -10 q 346 -10 328 12 q 310 33 310 71 q 310 94 312 109 q 315 124 319 143 l 314 143 q 283 72 242 31 q 202 -10 149 -10 z m 186 51 q 207 51 230 72 q 254 92 276 126 q 298 160 315 202 q 332 244 341 288 l 377 464 q 369 482 352 491 q 334 500 315 500 q 281 500 252 476 q 224 453 202 415 q 181 377 166 331 q 150 285 142 240 q 135 195 135 158 q 135 101 150 76 q 164 51 186 51 z"},"L":{"x_min":0,"x_max":540,"ha":540,"o":"m -18 0 l -9 41 l 3 41 q 31 41 54 54 q 78 66 88 114 l 191 602 q 193 612 194 620 q 196 629 196 634 q 196 659 178 666 q 161 673 135 673 l 123 673 l 132 714 l 391 714 l 382 673 l 370 673 q 342 673 318 662 q 295 650 286 605 l 169 49 l 334 49 q 374 49 396 75 q 419 101 431 137 l 456 214 l 502 214 l 450 0 z"},"3":{"x_min":0,"x_max":490,"ha":490,"o":"m 169 -10 q 108 -10 72 5 q 35 20 19 44 q 3 68 3 95 q 3 130 24 148 q 44 167 75 167 q 74 137 84 108 q 94 80 116 62 q 139 44 177 44 q 214 44 246 64 q 279 84 299 124 q 319 163 319 223 q 319 278 288 312 q 257 345 200 345 l 164 345 l 173 395 l 201 395 q 250 395 290 418 q 330 442 353 485 q 376 528 376 585 q 376 625 358 650 q 340 675 304 675 q 266 675 242 654 q 219 633 206 600 q 192 566 184 526 q 156 526 136 538 q 116 550 116 582 q 116 623 142 655 q 168 687 212 706 q 257 724 311 724 q 382 724 426 688 q 471 651 471 585 q 471 538 451 494 q 431 451 391 419 q 351 387 292 375 q 349 368 382 330 q 416 292 416 231 q 416 163 394 117 q 371 71 334 43 q 297 15 254 2 q 210 -10 169 -10 z"},";":{"x_min":0,"x_max":257,"ha":257,"o":"m 173 405 q 150 405 136 419 q 121 433 121 460 q 121 498 140 520 q 158 541 184 541 q 206 541 222 527 q 237 513 237 486 q 237 442 216 424 q 196 405 173 405 z m -12 -146 l -6 -105 q 84 -81 84 -19 q 84 -6 76 2 q 68 10 58 18 q 48 25 40 36 q 32 47 32 66 q 32 96 49 111 q 66 126 89 126 q 116 126 136 104 q 156 83 156 43 q 156 -24 114 -76 q 73 -127 -12 -146 z"},"J":{"x_min":0,"x_max":314,"ha":314,"o":"m -69 -240 q -92 -240 -108 -237 q -124 -234 -140 -229 l -127 -185 q -116 -190 -100 -192 q -85 -194 -72 -194 q -42 -194 -18 -178 q 5 -162 24 -122 q 42 -82 57 -10 l 187 604 q 188 611 190 620 q 191 629 191 634 q 191 659 174 666 q 157 673 131 673 l 120 673 l 129 714 l 387 714 l 378 673 l 367 673 q 338 673 315 660 q 292 648 282 600 l 152 -8 q 126 -129 74 -184 q 22 -240 -69 -240 z"},"V":{"x_min":0,"x_max":585,"ha":585,"o":"m 207 0 l 152 620 q 150 652 138 662 q 127 673 102 673 l 91 673 l 100 714 l 343 714 l 334 673 l 314 673 q 286 673 268 659 q 251 645 251 611 q 251 606 252 599 q 252 592 252 587 l 276 251 q 279 204 280 166 q 280 129 279 93 q 293 130 311 175 q 329 220 357 275 l 511 580 q 521 599 525 612 q 529 626 529 637 q 529 673 482 673 l 462 673 l 471 714 l 685 714 l 675 673 l 658 673 q 633 673 618 658 q 603 643 578 594 l 274 0 z"},"\"":{"x_min":0,"x_max":359,"ha":359,"o":"m 124 482 l 148 714 l 247 714 l 166 482 z m 290 482 l 314 714 l 413 714 l 332 482 z"},"7":{"x_min":0,"x_max":490,"ha":490,"o":"m 97 0 l 437 637 l 211 637 q 165 637 151 585 l 138 535 l 98 535 l 141 714 l 528 714 l 522 688 l 164 0 z"},"S":{"x_min":0,"x_max":475,"ha":475,"o":"m 202 -10 q 138 -10 96 10 q 54 29 32 60 q 11 92 11 130 q 11 170 34 188 q 58 207 86 207 q 86 162 98 124 q 111 86 139 62 q 167 39 212 39 q 273 39 308 76 q 342 112 342 175 q 342 202 334 226 q 326 249 303 274 q 280 298 237 327 q 183 362 150 406 q 118 449 118 519 q 118 578 144 624 q 171 671 220 698 q 268 724 336 724 q 412 724 456 695 q 500 666 500 620 q 500 588 481 568 q 462 549 418 549 q 419 576 412 606 q 405 635 385 655 q 365 675 327 675 q 280 675 244 642 q 208 610 208 540 q 208 489 235 458 q 262 428 314 394 q 375 351 405 306 q 435 262 435 206 q 435 103 372 46 q 310 -10 202 -10 z"},"}":{"x_min":0,"x_max":370,"ha":370,"o":"m -48 -129 l -39 -86 l -11 -86 q 27 -86 48 -62 q 68 -37 80 19 l 117 193 q 128 242 158 274 q 187 307 239 316 l 239 320 q 165 335 165 406 q 165 416 166 426 q 168 436 170 446 l 207 612 q 209 625 210 636 q 212 648 212 663 q 212 718 159 718 l 132 718 l 141 760 l 202 760 q 254 760 279 732 q 304 703 304 662 q 304 652 303 642 q 302 631 299 618 l 263 443 q 261 433 260 425 q 258 417 258 408 q 258 368 282 353 q 306 338 341 337 l 332 297 q 289 295 256 273 q 222 251 209 189 l 172 15 q 162 -32 144 -64 q 127 -96 94 -112 q 62 -129 8 -129 z"},"Z":{"x_min":0,"x_max":529,"ha":529,"o":"m -11 0 l -3 39 l 447 665 l 251 665 q 213 665 192 640 q 171 615 160 583 l 147 542 l 99 542 l 142 714 l 576 714 l 568 674 l 116 49 l 339 49 q 380 49 400 72 q 420 94 431 128 l 444 172 l 491 172 l 449 0 z"},"x":{"x_min":0,"x_max":478,"ha":478,"o":"m -16 0 l -6 41 l 5 41 q 22 41 34 46 q 47 51 62 66 q 76 81 97 110 l 211 267 l 159 422 q 145 465 134 480 q 124 495 99 495 l 87 495 l 96 536 l 219 536 l 277 333 l 398 536 l 506 536 l 496 495 l 481 495 q 456 495 438 481 q 421 467 390 423 l 296 287 l 350 113 q 363 70 374 56 q 386 41 412 41 l 423 41 l 414 0 l 290 0 l 228 221 l 91 0 z"},")":{"x_min":0,"x_max":305,"ha":305,"o":"m -46 -136 l -36 -92 q 22 -56 63 0 q 104 57 132 124 q 160 191 176 259 q 192 327 199 386 q 206 445 206 484 q 206 525 199 568 q 192 610 176 646 q 160 683 134 706 l 144 750 q 224 712 259 632 q 294 552 294 453 q 294 364 273 272 q 252 179 210 96 q 167 14 104 -48 q 40 -109 -46 -136 z"},"&":{"x_min":0,"x_max":647,"ha":647,"o":"m 219 -10 q 156 -10 115 14 q 74 38 54 79 q 34 120 34 169 q 34 238 60 282 q 86 326 129 354 q 172 383 224 405 q 206 442 196 477 q 187 512 187 546 q 187 634 236 679 q 285 724 376 724 q 450 724 485 688 q 520 651 520 599 q 520 543 499 508 q 478 474 436 449 q 394 424 330 397 l 442 202 q 462 245 476 292 q 491 338 500 381 l 508 421 l 665 421 l 656 380 l 649 380 q 619 380 592 369 q 565 358 544 311 q 529 277 512 237 q 494 197 471 158 l 514 88 q 529 64 546 52 q 564 41 600 41 l 608 41 l 598 0 l 461 0 l 414 84 q 378 43 330 16 q 283 -10 219 -10 z m 306 436 q 355 458 384 480 q 414 501 427 528 q 440 554 440 593 q 440 631 422 654 q 403 676 369 676 q 276 676 276 553 q 276 527 283 498 q 290 469 306 436 z m 233 45 q 281 45 319 68 q 357 90 387 126 l 249 363 q 204 338 178 312 q 151 286 140 253 q 128 220 128 173 q 128 118 156 82 q 184 45 233 45 z"},"_":{"x_min":0,"x_max":395,"ha":395,"o":"m -83 -142 l -70 -83 l 333 -83 l 320 -142 z"},"v":{"x_min":0,"x_max":470,"ha":470,"o":"m 144 -9 l 97 442 q 93 474 78 484 q 64 495 39 495 l 30 495 l 39 536 l 174 536 l 206 240 q 209 206 212 171 q 215 136 216 107 q 218 78 219 61 l 221 61 q 254 97 284 142 q 314 186 338 233 q 362 280 376 322 q 389 364 389 396 q 389 433 375 451 q 361 469 338 469 q 340 507 358 524 q 376 542 399 542 q 425 542 440 522 q 456 502 456 455 q 456 395 432 330 q 409 265 372 202 q 336 140 297 88 q 258 36 227 1 z"},"O":{"x_min":0,"x_max":645,"ha":645,"o":"m 273 -11 q 210 -11 160 19 q 111 49 82 108 q 53 167 53 253 q 53 311 68 376 q 83 441 112 503 q 142 565 186 615 q 230 665 288 695 q 345 725 416 725 q 474 725 524 697 q 574 669 604 612 q 634 554 634 464 q 634 408 620 344 q 605 279 576 216 q 547 154 504 102 q 460 51 402 20 q 345 -11 273 -11 z m 282 43 q 332 43 372 74 q 413 104 443 154 q 473 204 492 264 q 512 323 522 382 q 532 442 532 490 q 532 584 496 628 q 461 672 405 672 q 355 672 315 642 q 275 611 245 561 q 215 511 195 452 q 175 392 165 332 q 155 273 155 225 q 155 130 192 86 q 228 43 282 43 z"},"(":{"x_min":0,"x_max":305,"ha":305,"o":"m 192 -127 q 112 -89 76 -8 q 41 72 41 170 q 41 259 62 352 q 83 444 126 526 q 168 609 232 670 q 296 732 381 759 l 371 716 q 314 680 272 624 q 231 567 204 500 q 176 433 160 365 q 144 297 137 238 q 130 179 130 139 q 130 98 136 56 q 143 13 159 -24 q 175 -60 202 -83 z"},"C":{"x_min":0,"x_max":546,"ha":546,"o":"m 288 -10 q 176 -10 114 56 q 53 123 53 245 q 53 335 80 421 q 107 507 156 576 q 206 644 274 684 q 343 725 426 725 q 503 725 544 696 q 585 666 585 618 q 585 580 558 558 q 532 536 492 536 q 493 564 488 596 q 483 628 466 650 q 448 673 412 673 q 364 673 324 645 q 284 617 252 570 q 221 523 200 466 q 178 408 166 348 q 155 287 155 232 q 155 146 192 100 q 230 54 303 54 q 363 54 402 82 q 441 111 464 145 q 474 135 474 114 q 474 88 454 59 q 434 30 393 10 q 352 -10 288 -10 z"},"W":{"x_min":0,"x_max":902,"ha":902,"o":"m 184 0 l 157 620 q 156 652 144 662 q 132 673 107 673 l 96 673 l 105 714 l 348 714 l 338 673 l 318 673 q 291 673 274 660 q 256 648 256 622 q 255 614 256 602 q 256 591 256 579 l 268 283 q 271 187 268 111 q 281 152 299 195 q 317 238 338 285 l 529 707 l 594 707 l 616 273 q 619 173 616 104 q 631 146 650 194 q 670 242 692 291 l 824 580 q 841 620 841 640 q 841 658 830 666 q 820 673 796 673 l 775 673 l 783 714 l 996 714 l 986 673 l 969 673 q 944 673 928 658 q 911 644 888 595 l 620 0 l 537 0 l 512 555 l 267 0 z"},"A":{"x_min":0,"x_max":614,"ha":614,"o":"m -47 0 l -39 41 l -22 41 q 3 41 18 56 q 34 71 60 119 l 375 714 l 452 714 l 512 111 q 516 73 526 57 q 537 41 562 41 l 574 41 l 566 0 l 324 0 l 332 41 l 352 41 q 380 41 398 56 q 415 72 415 103 q 415 108 415 115 q 415 122 414 127 l 404 240 l 182 240 l 127 133 q 117 114 114 100 q 110 86 110 75 q 110 41 156 41 l 176 41 l 167 0 z m 305 479 l 207 289 l 400 289 l 384 470 q 380 514 378 553 q 375 592 376 628 q 362 592 346 559 q 330 526 305 479 z"},"f":{"x_min":0,"x_max":286,"ha":286,"o":"m -77 -240 q -90 -240 -104 -238 q -119 -235 -127 -232 l -117 -187 q -110 -189 -99 -192 q -88 -194 -78 -194 q -36 -194 -11 -152 q 14 -111 33 -19 l 140 480 l 61 480 l 69 515 l 151 536 l 163 594 q 180 677 222 724 q 264 770 338 770 q 394 770 422 750 q 451 730 451 695 q 451 664 430 648 q 410 632 372 632 q 374 670 366 697 q 358 724 331 724 q 300 724 284 694 q 267 664 254 600 l 241 536 l 339 536 l 327 480 l 229 480 l 124 -12 q 106 -98 76 -148 q 47 -198 8 -219 q -30 -240 -77 -240 z"},"Q":{"x_min":0,"x_max":645,"ha":645,"o":"m 386 -223 q 326 -223 291 -194 q 256 -164 240 -115 q 225 -66 224 -6 q 149 8 101 74 q 53 140 53 252 q 53 311 68 376 q 83 441 112 503 q 142 565 186 615 q 230 665 288 695 q 345 725 416 725 q 474 725 524 697 q 574 669 604 612 q 634 554 634 464 q 634 412 622 352 q 609 291 584 232 q 560 173 523 122 q 486 72 436 37 q 387 2 326 -8 q 328 -97 350 -136 q 371 -176 412 -176 q 428 -176 442 -173 q 455 -170 467 -165 l 473 -206 q 454 -213 434 -218 q 415 -223 386 -223 z m 282 43 q 332 43 372 74 q 413 104 443 154 q 473 204 492 264 q 512 323 522 382 q 532 442 532 490 q 532 584 497 628 q 462 672 406 672 q 355 672 315 642 q 275 611 245 561 q 215 511 195 452 q 175 392 165 332 q 155 273 155 225 q 155 130 192 86 q 228 43 282 43 z"},"w":{"x_min":0,"x_max":713,"ha":713,"o":"m 390 -11 q 391 35 392 98 q 392 160 392 224 q 392 288 392 342 q 392 396 392 425 q 385 404 366 361 q 347 318 322 264 q 298 211 273 158 q 248 106 227 64 q 206 22 195 3 l 103 -9 l 110 423 q 111 469 96 482 q 80 495 55 495 l 48 495 l 60 536 l 196 536 q 195 465 194 384 q 193 304 191 224 q 189 144 186 76 l 190 76 q 212 118 238 173 q 264 228 291 288 q 318 349 344 410 q 369 472 390 527 l 467 531 q 469 501 470 454 q 471 407 472 352 q 473 298 473 244 q 473 189 473 144 q 473 99 472 73 l 478 73 q 509 114 538 164 q 568 213 592 264 q 616 314 630 358 q 645 401 645 431 q 645 478 609 488 q 611 511 626 528 q 640 546 663 546 q 710 546 710 477 q 710 418 680 347 q 651 276 598 190 q 546 104 477 1 z"},"-":{"x_min":0,"x_max":267,"ha":267,"o":"m 19 236 l 36 309 l 259 309 l 242 236 z"},"E":{"x_min":0,"x_max":540,"ha":540,"o":"m -18 0 l -10 41 l 1 41 q 34 41 56 54 q 77 67 86 108 l 188 590 q 194 616 194 626 q 194 657 177 665 q 160 673 135 673 l 123 673 l 132 714 l 572 714 l 539 540 l 491 540 q 492 544 494 558 q 495 571 496 584 q 498 598 498 601 q 498 628 484 646 q 470 665 438 665 l 298 665 l 242 398 l 448 398 l 438 350 l 232 350 l 168 49 l 330 49 q 370 49 394 74 q 418 98 429 131 l 444 174 l 491 174 l 448 0 z"},"s":{"x_min":0,"x_max":406,"ha":406,"o":"m 166 -10 q 101 -10 62 19 q 23 48 23 97 q 23 126 34 141 q 45 156 60 162 q 76 168 89 168 q 88 116 108 77 q 128 38 178 38 q 220 38 246 64 q 271 89 271 135 q 271 169 252 193 q 233 217 189 240 q 141 267 113 300 q 85 332 85 388 q 85 457 134 502 q 182 546 261 546 q 309 546 338 532 q 368 518 382 496 q 396 474 396 452 q 396 420 376 404 q 356 389 322 389 q 323 416 317 442 q 311 467 296 484 q 280 500 251 500 q 213 500 190 476 q 168 451 167 412 q 167 380 188 357 q 209 334 250 312 q 300 286 327 251 q 354 216 354 161 q 354 84 305 37 q 256 -10 166 -10 z"},">":{"x_min":0,"x_max":465,"ha":465,"o":"m 60 111 l 60 177 l 345 357 l 60 540 l 60 605 l 426 375 l 426 340 z"},"l":{"x_min":0,"x_max":269,"ha":269,"o":"m 139 -10 q 101 -10 82 17 q 62 44 62 81 q 62 109 70 154 q 78 199 86 238 l 168 627 q 172 642 174 656 q 175 669 175 676 q 175 702 158 710 q 141 719 118 719 l 107 719 l 116 760 l 287 760 l 170 216 q 167 201 163 178 q 159 156 156 134 q 153 112 153 98 q 153 51 180 51 q 194 51 209 59 q 224 67 240 78 l 256 49 q 236 30 206 10 q 176 -10 139 -10 z"},"8":{"x_min":0,"x_max":490,"ha":490,"o":"m 208 -10 q 117 -10 68 36 q 18 82 18 154 q 18 212 40 250 q 63 289 102 316 q 142 343 194 365 q 157 396 136 438 q 114 479 114 525 q 114 580 136 625 q 157 670 204 697 q 251 724 326 724 q 402 724 444 684 q 485 644 485 582 q 485 505 442 460 q 400 414 329 380 q 376 348 404 307 q 433 266 433 208 q 433 134 402 86 q 372 37 321 14 q 270 -10 208 -10 z m 287 404 q 353 438 378 480 q 403 522 403 576 q 403 619 382 647 q 362 675 320 675 q 268 675 236 638 q 204 600 204 537 q 204 496 224 464 q 245 432 287 404 z m 210 38 q 265 38 305 74 q 345 111 345 184 q 345 236 317 272 q 289 307 234 340 q 175 314 140 270 q 105 225 105 154 q 105 101 132 70 q 160 38 210 38 z"},"\\":{"x_min":0,"x_max":248,"ha":248,"o":"m 146 -121 l 109 760 l 160 760 l 198 -121 z"},"e":{"x_min":0,"x_max":430,"ha":430,"o":"m 209 -10 q 163 -10 125 12 q 87 34 64 78 q 42 121 42 187 q 42 243 60 306 q 78 368 113 422 q 148 477 199 512 q 250 546 315 546 q 369 546 399 517 q 429 488 429 437 q 429 384 396 337 q 362 290 304 261 q 246 232 173 232 l 141 232 q 140 221 138 206 q 137 192 137 181 q 137 120 161 86 q 185 52 229 52 q 271 52 304 74 q 337 97 356 123 q 364 118 364 102 q 364 80 348 54 q 331 28 296 9 q 262 -10 209 -10 z m 149 276 l 159 276 q 210 276 250 296 q 290 316 313 352 q 336 388 336 437 q 336 468 324 484 q 311 501 290 501 q 265 501 243 481 q 221 461 202 428 q 184 394 170 354 q 156 315 149 276 z"},"b":{"x_min":0,"x_max":493,"ha":493,"o":"m 198 -10 q 165 -10 138 1 q 111 12 96 26 l 56 -3 l 24 -3 l 156 614 q 160 640 163 654 q 166 668 166 676 q 166 703 149 711 q 132 719 110 719 l 100 719 l 110 760 l 279 760 l 232 534 q 228 517 221 494 q 214 470 208 448 q 201 425 197 412 l 201 412 q 232 474 271 510 q 310 546 362 546 q 412 546 440 503 q 469 460 469 378 q 469 328 457 274 q 445 220 422 170 q 398 119 365 78 q 332 38 290 14 q 248 -10 198 -10 z m 195 36 q 230 36 258 60 q 286 84 308 122 q 330 161 344 207 q 359 253 366 298 q 374 343 374 379 q 374 436 359 460 q 344 485 324 485 q 297 485 272 460 q 246 434 226 398 q 205 361 192 326 q 178 290 173 269 l 131 71 q 141 56 158 46 q 174 36 195 36 z"},"%":{"x_min":0,"x_max":778,"ha":778,"o":"m 178 281 q 128 281 99 318 q 70 354 70 431 q 70 473 82 523 q 93 573 117 619 q 141 665 178 694 q 214 723 263 723 q 322 723 348 682 q 375 640 375 573 q 375 534 363 484 q 351 434 326 388 q 302 341 265 311 q 228 281 178 281 z m 148 0 l 601 714 l 662 714 l 213 0 z m 184 321 q 212 321 234 350 q 255 378 270 422 q 285 466 292 512 q 300 558 300 593 q 300 636 290 660 q 281 684 258 684 q 230 684 208 656 q 187 627 172 583 q 157 539 150 493 q 142 447 142 412 q 142 369 152 345 q 161 321 184 321 z m 553 -8 q 504 -8 474 29 q 445 66 445 142 q 445 184 456 234 q 468 284 492 330 q 516 376 552 405 q 588 434 637 434 q 696 434 722 393 q 749 352 749 284 q 749 245 737 195 q 725 145 701 98 q 677 52 640 22 q 603 -8 553 -8 z m 559 32 q 587 32 608 60 q 630 89 645 133 q 660 177 668 223 q 675 269 675 304 q 675 347 666 371 q 656 395 632 395 q 605 395 584 366 q 562 338 547 294 q 532 251 524 205 q 516 159 516 125 q 516 81 526 56 q 536 32 559 32 z"},"m":{"x_min":0,"x_max":781,"ha":781,"o":"m 656 -9 q 616 -9 597 19 q 578 47 578 87 q 578 110 582 142 q 587 175 598 225 l 614 304 q 617 318 622 340 q 627 363 632 386 q 636 410 636 428 q 636 450 627 467 q 618 484 593 484 q 569 484 546 464 q 522 444 502 412 q 481 380 466 343 q 450 306 442 273 l 427 207 q 424 191 419 162 q 414 133 409 100 q 404 68 400 40 q 396 13 395 0 l 304 0 q 305 14 308 40 q 312 67 317 100 q 322 134 328 167 q 334 200 340 225 l 358 304 q 360 315 366 338 q 371 360 375 385 q 379 410 379 430 q 379 448 372 466 q 365 483 342 483 q 316 483 290 460 q 264 438 241 402 q 218 367 202 328 q 185 289 178 256 l 125 0 l 36 0 l 120 403 q 123 419 125 432 q 127 446 127 453 q 127 479 110 487 q 93 495 70 495 l 63 495 l 72 536 l 237 536 l 215 419 l 220 419 q 258 480 296 512 q 334 545 381 545 q 430 545 450 514 q 470 482 470 441 q 470 436 470 430 q 469 423 468 417 l 473 417 q 508 482 548 514 q 588 545 638 545 q 688 545 708 513 q 728 481 728 440 q 728 413 721 382 q 714 350 709 323 l 684 205 q 677 174 673 146 q 669 117 669 95 q 669 52 697 52 q 724 52 753 75 l 768 46 q 748 26 720 8 q 693 -9 656 -9 z"},"#":{"x_min":0,"x_max":481,"ha":481,"o":"m 46 0 l 104 203 l 26 203 l 34 262 l 121 262 l 176 459 l 85 459 l 92 517 l 193 517 l 248 714 l 302 714 l 246 517 l 366 517 l 421 714 l 475 714 l 419 517 l 497 517 l 490 459 l 402 459 l 348 262 l 440 262 l 433 203 l 329 203 l 273 0 l 220 0 l 276 203 l 157 203 l 100 0 z m 174 262 l 294 262 l 349 459 l 229 459 z"},",":{"x_min":0,"x_max":223,"ha":223,"o":"m -27 -146 l -21 -105 q 69 -81 69 -19 q 69 -6 62 2 q 54 10 44 18 q 33 25 26 36 q 18 47 18 66 q 18 95 34 110 q 51 126 74 126 q 101 126 120 104 q 140 83 140 43 q 140 -24 99 -76 q 58 -127 -27 -146 z"},"n":{"x_min":0,"x_max":528,"ha":528,"o":"m 400 -10 q 361 -10 341 18 q 321 46 322 87 q 322 111 326 143 q 330 175 341 226 l 359 304 q 362 318 367 340 q 372 363 376 386 q 379 410 379 428 q 379 447 372 465 q 366 483 342 483 q 316 483 290 460 q 264 436 241 400 q 218 365 202 326 q 185 286 179 255 l 125 0 l 36 0 l 120 403 q 123 418 125 432 q 127 446 127 453 q 127 478 110 486 q 94 495 70 495 l 63 495 l 73 536 l 234 536 l 214 421 l 220 421 q 258 482 296 514 q 333 545 381 545 q 431 545 452 514 q 472 482 472 440 q 472 414 465 382 q 458 350 453 323 l 428 206 q 421 175 417 146 q 413 117 413 96 q 413 51 441 51 q 466 51 497 74 l 513 46 q 493 26 466 8 q 438 -10 400 -10 z"},"h":{"x_min":0,"x_max":528,"ha":528,"o":"m 403 -10 q 364 -10 344 16 q 324 42 324 83 q 324 105 328 140 q 333 174 342 215 l 360 304 q 363 318 368 340 q 373 363 378 386 q 382 410 382 428 q 382 447 375 465 q 368 483 344 483 q 318 483 292 460 q 266 438 244 403 q 221 368 204 330 q 188 292 182 262 l 126 0 l 38 0 l 168 617 q 177 662 177 675 q 177 702 160 710 q 144 719 121 719 l 113 719 l 122 760 l 289 760 l 249 575 q 239 525 230 484 q 220 443 214 421 l 220 421 q 257 482 296 514 q 336 545 383 545 q 434 545 454 514 q 474 482 474 440 q 474 414 468 382 q 461 351 455 325 l 430 206 q 423 176 419 147 q 415 118 415 96 q 415 51 443 51 q 457 51 470 57 q 484 63 499 74 l 514 46 q 493 24 466 7 q 438 -10 403 -10 z"},"z":{"x_min":0,"x_max":447,"ha":447,"o":"m 0 0 l 8 39 l 316 482 l 207 482 q 172 482 157 461 q 142 440 123 400 l 121 396 l 83 396 l 122 536 l 432 536 l 424 496 l 115 54 l 267 54 q 297 54 314 79 q 330 104 343 138 l 353 161 l 391 161 l 352 0 z"},"B":{"x_min":0,"x_max":568,"ha":568,"o":"m -18 0 l -10 41 l 1 41 q 31 41 54 54 q 78 67 88 114 l 189 598 q 196 626 196 634 q 196 660 178 666 q 160 673 135 673 l 123 673 l 132 714 l 362 714 q 460 714 510 677 q 560 640 560 569 q 560 485 518 440 q 476 394 414 378 l 414 374 q 458 365 486 329 q 514 293 514 234 q 514 119 446 60 q 378 0 248 0 z m 242 398 l 306 398 q 387 398 422 441 q 457 484 457 561 q 457 665 348 665 l 298 665 z m 168 49 l 248 49 q 338 49 376 100 q 413 151 413 241 q 413 350 302 350 l 232 350 z"},"K":{"x_min":0,"x_max":608,"ha":608,"o":"m -18 0 l -10 41 l 1 41 q 30 41 54 54 q 78 66 88 114 l 191 602 q 193 614 194 622 q 196 629 196 634 q 196 659 178 666 q 161 673 135 673 l 123 673 l 132 714 l 390 714 l 380 673 l 369 673 q 340 673 317 660 q 294 648 284 600 l 226 320 l 448 559 q 483 597 498 618 q 513 639 513 653 q 513 665 505 670 q 497 674 476 674 l 484 714 l 682 714 l 673 674 q 643 674 611 648 q 579 622 537 579 l 376 414 l 474 119 q 488 79 506 60 q 525 41 554 41 l 557 41 l 547 0 l 523 0 q 472 0 444 11 q 415 22 400 47 q 384 72 372 114 l 300 338 l 214 261 l 181 111 q 180 104 178 94 q 176 85 176 80 q 176 55 194 48 q 211 41 238 41 l 249 41 l 240 0 z"},"R":{"x_min":0,"x_max":577,"ha":577,"o":"m -18 0 l -9 41 l 3 41 q 30 41 53 52 q 76 63 86 108 l 192 605 q 194 614 195 622 q 196 629 196 634 q 196 659 178 666 q 161 673 135 673 l 123 673 l 132 714 l 367 714 q 561 714 561 551 q 561 480 536 436 q 510 392 472 368 q 433 343 395 332 l 450 120 q 460 80 476 60 q 492 41 520 41 l 527 41 l 519 0 l 504 0 q 454 0 424 10 q 394 20 377 45 q 360 70 349 117 l 304 315 l 225 315 l 181 108 q 180 100 178 92 q 177 85 177 80 q 177 55 194 48 q 211 41 237 41 l 265 41 l 255 0 z m 235 361 l 299 361 q 342 361 379 380 q 416 399 438 440 q 460 481 460 548 q 460 611 434 639 q 408 667 355 667 l 299 667 z"},"T":{"x_min":0,"x_max":533,"ha":533,"o":"m 81 0 l 90 41 l 109 41 q 137 41 160 52 q 183 63 193 108 l 309 665 l 229 665 q 192 665 172 640 q 152 616 141 584 l 127 541 l 80 541 l 122 714 l 615 714 l 582 541 l 535 541 q 536 548 538 561 q 539 574 540 587 q 542 600 542 604 q 542 630 530 648 q 518 665 486 665 l 405 665 l 288 113 q 286 101 284 93 q 283 85 283 80 q 283 55 300 48 q 317 41 345 41 l 363 41 l 354 0 z"},"P":{"x_min":0,"x_max":540,"ha":540,"o":"m -18 0 l -9 41 l 3 41 q 31 41 54 54 q 78 66 88 114 l 192 605 q 194 613 195 621 q 196 629 196 634 q 196 659 178 666 q 161 673 135 673 l 123 673 l 132 714 l 357 714 q 448 714 500 667 q 552 620 552 529 q 552 481 538 436 q 524 391 492 356 q 460 320 408 299 q 356 278 281 278 l 217 278 l 182 113 q 180 105 178 95 q 177 85 177 80 q 177 55 194 48 q 211 41 237 41 l 265 41 l 255 0 z m 228 324 l 272 324 q 338 324 378 352 q 418 380 436 427 q 453 474 453 533 q 453 606 424 636 q 394 667 338 667 l 300 667 z"},"|":{"x_min":0,"x_max":477,"ha":477,"o":"m 217 -240 l 217 760 l 270 760 l 270 -240 z"},"t":{"x_min":0,"x_max":323,"ha":323,"o":"m 159 -10 q 113 -10 88 17 q 64 44 64 93 q 64 116 68 144 q 72 171 77 191 l 138 480 l 72 480 l 82 519 q 119 519 156 550 q 194 582 225 659 l 266 659 l 240 536 l 343 536 l 331 480 l 228 480 l 168 195 q 162 168 158 144 q 154 120 154 103 q 154 51 197 51 q 215 51 234 58 q 254 64 268 73 l 282 36 q 255 16 224 3 q 194 -10 159 -10 z"},"M":{"x_min":0,"x_max":809,"ha":809,"o":"m -18 0 l -9 41 l 3 41 q 30 41 53 52 q 76 63 86 108 l 192 605 q 194 615 195 622 q 196 629 196 634 q 196 659 178 666 q 161 673 135 673 l 123 673 l 132 714 l 335 714 l 388 149 l 678 714 l 879 714 l 870 673 l 859 673 q 830 673 807 660 q 784 648 774 600 l 671 111 q 666 94 666 80 q 666 55 683 48 q 700 41 726 41 l 738 41 l 728 0 l 487 0 l 496 41 l 504 41 q 530 41 550 52 q 569 63 578 104 l 691 641 l 362 0 l 314 0 l 252 641 l 140 109 q 136 95 136 80 q 136 55 153 48 q 170 41 196 41 l 206 41 l 196 0 z"},"g":{"x_min":0,"x_max":482,"ha":482,"o":"m 150 -240 q 56 -240 10 -206 q -37 -172 -37 -114 q -37 -71 -16 -40 q 5 -10 38 9 q 70 28 107 36 q 91 44 80 61 q 68 78 68 100 q 68 132 88 154 q 107 177 155 204 q 97 235 97 317 q 97 353 110 392 q 123 432 149 467 q 175 502 214 524 q 254 546 306 546 q 332 546 355 538 q 378 530 395 514 q 414 543 438 564 q 463 585 492 585 q 513 585 524 573 q 534 561 534 542 q 534 521 523 500 q 512 478 482 478 q 482 493 476 504 q 471 514 458 514 q 446 514 436 506 q 425 498 415 491 q 432 463 432 419 q 432 384 420 344 q 408 304 383 268 q 358 233 320 210 q 281 188 227 188 q 220 188 213 188 q 206 189 199 190 q 179 182 158 166 q 136 150 136 127 q 136 111 148 104 q 161 98 179 96 l 264 87 q 326 79 360 48 q 393 16 393 -42 q 393 -96 367 -141 q 341 -186 287 -213 q 233 -240 150 -240 z m 236 236 q 265 236 286 255 q 308 274 322 304 q 335 334 342 366 q 348 398 348 425 q 348 465 334 483 q 319 501 293 501 q 264 501 242 482 q 221 463 207 433 q 193 403 186 371 q 180 339 180 313 q 180 272 195 254 q 210 236 236 236 z m 156 -192 q 212 -192 246 -174 q 281 -157 296 -128 q 312 -100 312 -67 q 312 -36 294 -18 q 275 1 233 5 l 154 13 q 102 7 70 -24 q 39 -56 39 -104 q 39 -143 65 -168 q 91 -192 156 -192 z"},"j":{"x_min":0,"x_max":257,"ha":257,"o":"m 214 645 q 192 645 178 656 q 164 668 164 694 q 164 724 181 741 q 198 758 223 758 q 243 758 258 746 q 273 734 273 709 q 273 674 256 660 q 238 645 214 645 z m -67 -240 q -84 -240 -99 -238 q -114 -236 -127 -233 l -118 -187 q -110 -189 -99 -191 q -88 -193 -78 -193 q -37 -193 -11 -150 q 15 -108 36 -8 l 126 422 q 130 443 130 456 q 130 480 116 488 q 103 495 80 495 l 69 495 l 78 536 l 240 536 l 125 -8 q 106 -96 78 -146 q 51 -197 14 -218 q -22 -240 -67 -240 z"},"i":{"x_min":0,"x_max":269,"ha":269,"o":"m 214 645 q 192 645 178 656 q 163 668 163 694 q 163 724 180 741 q 196 758 222 758 q 243 758 258 746 q 272 734 272 709 q 272 673 254 659 q 235 645 214 645 z m 140 -10 q 102 -10 83 17 q 64 44 64 81 q 64 101 68 130 q 71 158 76 188 q 82 218 88 243 l 125 419 q 127 431 128 440 q 130 450 130 457 q 130 481 116 488 q 102 495 79 495 l 68 495 l 76 536 l 239 536 l 172 216 q 166 190 160 154 q 154 119 154 98 q 154 51 182 51 q 196 51 211 59 q 226 67 243 78 l 258 49 q 238 30 208 10 q 178 -10 140 -10 z"},"y":{"x_min":0,"x_max":464,"ha":464,"o":"m -63 -240 q -109 -240 -145 -222 l -131 -173 q -121 -177 -106 -180 q -90 -183 -63 -183 q -20 -183 16 -166 q 52 -149 82 -122 q 112 -94 137 -62 q 162 -31 183 -2 l 84 442 q 76 472 64 484 q 51 495 26 495 l 17 495 l 26 536 l 158 536 l 215 265 q 220 239 227 204 q 234 169 240 137 q 245 105 246 89 l 248 89 q 283 148 312 208 q 341 268 358 323 q 376 378 376 421 q 376 445 366 461 q 355 477 333 477 q 334 512 352 528 q 371 545 393 545 q 421 545 436 526 q 452 506 452 466 q 452 389 407 286 q 362 182 287 56 q 242 -20 204 -76 q 166 -132 128 -168 q 90 -205 44 -222 q -2 -240 -63 -240 z"},"@":{"x_min":0,"x_max":792,"ha":792,"o":"m 365 -142 q 277 -142 208 -104 q 139 -65 99 12 q 59 88 59 200 q 59 309 90 402 q 121 496 177 566 q 233 636 310 675 q 386 714 476 714 q 570 714 634 673 q 697 632 728 562 q 760 492 760 405 q 760 306 734 232 q 708 159 667 118 q 626 77 580 77 q 542 77 516 102 q 491 126 480 168 l 476 168 q 456 129 428 103 q 401 77 357 77 q 306 77 268 116 q 230 154 230 232 q 230 275 243 326 q 256 377 284 424 q 312 470 356 500 q 399 529 460 529 q 488 529 508 520 q 528 511 541 499 l 578 520 l 597 520 l 547 265 q 545 252 542 232 q 539 211 539 194 q 539 162 554 146 q 568 130 588 130 q 614 130 639 163 q 664 196 680 258 q 697 321 697 408 q 697 532 635 599 q 573 666 469 666 q 405 666 344 634 q 283 601 234 540 q 186 480 158 394 q 129 308 129 202 q 129 98 162 33 q 196 -32 252 -62 q 307 -92 374 -92 q 445 -92 502 -67 q 560 -42 600 -10 l 620 -43 q 575 -80 510 -111 q 445 -142 365 -142 z m 374 130 q 402 130 422 148 q 441 167 452 196 q 464 224 469 255 l 508 458 q 504 472 490 480 q 476 488 461 488 q 430 488 406 469 q 381 450 364 420 q 346 390 335 354 q 324 319 318 285 q 313 251 313 226 q 313 177 330 154 q 347 130 374 130 z"},".":{"x_min":0,"x_max":223,"ha":223,"o":"m 78 -8 q 54 -8 40 6 q 25 20 25 46 q 25 85 44 106 q 63 128 89 128 q 112 128 127 114 q 142 100 142 74 q 142 29 122 10 q 101 -8 78 -8 z"},"p":{"x_min":0,"x_max":508,"ha":508,"o":"m -12 -240 l 121 393 q 131 437 131 453 q 131 479 114 487 q 98 495 76 495 l 66 495 l 76 536 l 232 536 l 211 418 l 216 418 q 243 470 280 508 q 318 546 374 546 q 425 546 454 502 q 482 459 482 378 q 482 333 471 280 q 460 228 438 177 q 416 126 384 84 q 351 41 308 16 q 265 -10 212 -10 q 162 -10 128 13 q 128 13 126 -2 q 124 -18 120 -35 l 108 -95 q 104 -109 101 -126 q 98 -142 98 -156 q 98 -184 114 -192 q 130 -199 152 -199 l 168 -199 l 159 -240 z m 210 34 q 243 34 270 58 q 298 81 320 120 q 342 158 357 204 q 372 249 380 295 q 388 341 388 378 q 388 405 384 430 q 379 454 368 470 q 358 485 338 485 q 313 485 289 463 q 265 441 244 406 q 223 371 208 332 q 192 294 185 261 l 144 70 q 152 59 170 46 q 187 34 210 34 z"},"X":{"x_min":0,"x_max":579,"ha":579,"o":"m -41 0 l -32 41 l -27 41 q -1 41 20 56 q 42 71 76 113 l 273 356 l 188 622 q 179 650 163 662 q 147 673 124 673 l 112 673 l 121 714 l 360 714 l 351 673 l 331 673 q 290 673 290 644 q 290 634 294 620 q 297 605 304 585 l 349 435 l 462 583 q 476 600 486 617 q 496 634 496 648 q 496 673 455 673 l 453 673 l 462 714 l 652 714 l 643 673 l 636 673 q 610 673 590 656 q 569 639 536 598 l 367 386 l 462 94 q 472 63 488 52 q 504 41 520 41 l 532 41 l 522 0 l 282 0 l 291 41 l 301 41 q 356 41 356 81 q 356 93 352 111 q 348 129 338 167 l 292 306 l 158 138 q 142 118 132 100 q 122 81 122 66 q 122 53 133 47 q 144 41 170 41 l 174 41 l 165 0 z"},"*":{"x_min":0,"x_max":438,"ha":438,"o":"m 297 374 l 221 392 l 277 541 l 129 480 l 115 562 l 264 577 l 136 662 l 183 731 l 291 604 l 302 765 l 377 747 l 320 599 l 469 658 l 483 575 l 333 562 l 462 478 l 415 412 l 306 534 z"},"Y":{"x_min":0,"x_max":547,"ha":547,"o":"m 86 0 l 95 41 l 116 41 q 144 41 167 52 q 190 63 200 109 l 237 296 l 148 620 q 140 648 132 660 q 124 673 98 673 l 88 673 l 96 714 l 336 714 l 327 673 l 285 673 q 248 673 248 642 q 248 619 257 584 q 266 548 273 516 l 292 448 q 299 421 305 392 q 311 362 312 337 q 324 357 339 381 q 354 405 378 439 l 463 566 q 482 593 490 612 q 499 632 499 648 q 499 661 489 667 q 479 673 454 673 l 425 673 l 435 714 l 649 714 l 640 673 l 624 673 q 604 673 586 652 q 568 632 540 591 l 333 293 l 295 111 q 290 93 290 80 q 290 55 308 48 q 325 41 351 41 l 371 41 l 362 0 z"},"c":{"x_min":0,"x_max":425,"ha":425,"o":"m 209 -10 q 162 -10 124 12 q 87 34 64 78 q 42 121 42 187 q 42 243 60 306 q 78 368 113 422 q 148 477 198 512 q 249 546 314 546 q 378 546 408 517 q 439 488 439 454 q 439 424 418 403 q 396 382 355 382 q 356 430 342 464 q 327 499 293 499 q 259 499 231 468 q 203 437 182 388 q 161 340 150 286 q 138 232 138 186 q 138 122 162 87 q 185 52 231 52 q 276 52 306 75 q 336 98 355 123 q 359 121 361 114 q 363 108 363 101 q 363 80 346 54 q 330 28 296 9 q 262 -10 209 -10 z"},"!":{"x_min":0,"x_max":296,"ha":296,"o":"m 115 204 l 194 714 l 303 714 l 163 204 z m 108 -8 q 85 -8 70 6 q 55 20 55 48 q 55 86 74 107 q 93 128 119 128 q 142 128 157 114 q 172 100 172 72 q 172 28 152 10 q 132 -8 108 -8 z"},"/":{"x_min":0,"x_max":248,"ha":248,"o":"m -85 -121 l 296 760 l 354 760 l -29 -121 z"},"[":{"x_min":0,"x_max":317,"ha":317,"o":"m 3 -128 l 192 760 l 392 760 l 382 719 l 345 719 q 316 719 293 706 q 270 694 260 647 l 118 -19 q 117 -25 116 -34 q 115 -44 115 -49 q 115 -73 132 -80 q 148 -87 174 -87 l 212 -87 l 203 -128 z"},"6":{"x_min":0,"x_max":490,"ha":490,"o":"m 219 -10 q 175 -10 139 14 q 103 37 82 86 q 60 136 60 215 q 60 290 74 364 q 89 437 116 502 q 143 567 182 617 q 221 667 270 696 q 320 724 378 724 q 441 724 474 698 q 506 672 506 635 q 506 601 484 581 q 462 561 423 561 q 424 590 421 617 q 418 644 406 660 q 394 677 369 677 q 306 677 256 602 q 206 526 172 381 q 192 397 226 415 q 259 433 303 433 q 350 433 380 410 q 411 388 426 350 q 441 312 441 267 q 441 214 428 165 q 414 116 386 76 q 358 36 316 13 q 275 -10 219 -10 z m 227 42 q 262 42 290 72 q 318 101 334 152 q 350 202 350 264 q 350 322 331 353 q 312 384 278 384 q 245 384 214 365 q 182 346 162 325 q 154 284 150 253 q 147 222 147 190 q 147 116 168 79 q 190 42 227 42 z"},"r":{"x_min":0,"x_max":415,"ha":415,"o":"m 38 0 l 120 387 q 129 430 129 450 q 129 479 109 487 q 89 495 67 495 l 58 495 l 67 536 l 226 536 l 206 408 l 213 408 q 230 444 250 476 q 271 507 298 526 q 325 546 363 546 q 400 546 418 527 q 436 508 436 480 q 436 446 417 425 q 398 404 357 404 q 358 439 352 460 q 345 481 325 481 q 302 481 279 456 q 256 430 234 388 q 213 345 195 292 q 177 238 166 183 l 128 0 z"},"2":{"x_min":0,"x_max":490,"ha":490,"o":"m -9 0 l 10 79 l 219 293 q 282 358 315 406 q 348 454 360 495 q 372 536 372 579 q 372 622 353 648 q 334 675 300 675 q 265 675 240 654 q 216 633 201 599 q 186 565 180 526 q 150 526 131 540 q 112 554 112 586 q 112 620 134 652 q 157 683 200 704 q 244 724 306 724 q 386 724 427 686 q 468 648 468 583 q 468 532 447 486 q 426 440 381 388 q 336 336 266 269 l 77 77 l 276 77 q 316 77 334 100 q 352 124 364 152 l 371 168 l 410 168 l 368 0 z"},"{":{"x_min":0,"x_max":371,"ha":371,"o":"m 201 -128 q 151 -128 123 -103 q 95 -78 95 -29 q 95 -14 97 0 q 99 13 103 28 l 136 189 q 140 206 140 226 q 140 265 116 280 q 93 296 58 297 l 67 337 q 110 339 143 360 q 176 381 189 443 l 228 616 q 243 686 278 723 q 314 760 391 760 l 447 760 l 437 718 l 410 718 q 373 718 352 692 q 330 666 317 607 l 282 440 q 272 390 242 358 q 212 327 160 317 l 160 314 q 197 307 216 284 q 234 262 234 227 q 234 204 228 185 l 192 19 q 190 6 188 -6 q 187 -17 187 -26 q 187 -86 240 -86 l 267 -86 l 258 -128 z"},"9":{"x_min":0,"x_max":490,"ha":490,"o":"m 155 -10 q 110 -10 84 3 q 58 16 46 36 q 35 55 35 76 q 35 103 51 122 q 67 142 95 142 q 94 118 101 94 q 108 70 124 54 q 140 38 166 38 q 209 38 242 76 q 276 113 303 182 q 330 250 354 343 q 332 317 298 296 q 265 275 220 275 q 152 275 116 319 q 80 363 80 433 q 80 518 113 584 q 146 650 200 687 q 254 724 317 724 q 388 724 430 677 q 472 630 472 542 q 472 498 464 440 q 457 383 441 321 q 425 259 400 200 q 375 141 340 94 q 304 46 258 18 q 212 -10 155 -10 z m 247 328 q 288 329 319 356 q 350 383 369 414 q 376 442 381 480 q 386 519 386 545 q 386 612 365 642 q 344 672 312 672 q 281 672 256 650 q 230 629 211 594 q 192 558 182 515 q 172 472 172 430 q 172 380 192 354 q 213 328 247 328 z"}," ":{"x_min":0,"x_max":224,"ha":224,"o":""},"I":{"x_min":0,"x_max":322,"ha":322,"o":"m -18 0 l -10 41 l 1 41 q 30 41 54 54 q 78 66 88 114 l 191 603 q 196 625 196 634 q 196 659 178 666 q 161 673 135 673 l 123 673 l 132 714 l 391 714 l 382 673 l 371 673 q 342 673 318 660 q 295 648 286 600 l 183 115 q 181 106 178 96 q 176 85 176 80 q 176 55 194 48 q 211 41 238 41 l 249 41 l 240 0 z"},"H":{"x_min":0,"x_max":687,"ha":687,"o":"m -18 0 l -10 41 l 1 41 q 30 41 54 54 q 78 66 88 114 l 190 600 q 196 624 196 635 q 196 659 178 666 q 161 673 135 673 l 123 673 l 132 714 l 390 714 l 380 673 l 369 673 q 341 673 318 660 q 294 648 284 600 l 242 398 l 513 398 l 557 605 q 558 612 560 621 q 561 630 561 635 q 561 660 544 666 q 528 673 502 673 l 491 673 l 499 714 l 756 714 l 747 673 l 736 673 q 708 673 684 660 q 660 648 650 600 l 547 111 q 546 104 544 94 q 542 85 542 79 q 542 54 559 48 q 576 41 603 41 l 615 41 l 605 0 l 348 0 l 357 41 l 369 41 q 397 41 420 54 q 443 66 453 114 l 502 349 l 231 349 l 181 111 q 180 104 178 94 q 176 85 176 79 q 176 55 193 48 q 210 41 237 41 l 248 41 l 238 0 z"},"4":{"x_min":0,"x_max":490,"ha":490,"o":"m 114 0 l 122 41 l 158 41 q 186 41 210 54 q 234 66 244 113 l 262 199 l 2 199 l 11 236 l 370 714 l 461 714 l 363 251 l 466 251 l 454 199 l 352 199 l 333 109 q 329 93 329 79 q 329 55 346 48 q 362 41 388 41 l 408 41 l 398 0 z m 282 517 l 79 251 l 272 251 l 311 440 q 320 484 333 536 q 346 588 359 634 q 350 616 335 594 q 320 571 306 550 q 292 530 282 517 z"},"~":{"x_min":0,"x_max":465,"ha":465,"o":"m 48 270 q 51 311 61 351 q 71 391 93 418 q 115 444 155 444 q 186 444 210 426 q 233 409 262 378 q 284 355 300 340 q 316 326 333 326 q 357 326 368 356 q 380 385 384 444 l 440 444 q 437 405 428 364 q 418 324 396 297 q 374 270 335 270 q 309 270 285 283 q 261 296 228 334 q 206 360 191 374 q 176 388 158 388 q 132 388 120 359 q 108 330 103 270 z"},"D":{"x_min":0,"x_max":630,"ha":630,"o":"m -18 0 l -10 41 l 1 41 q 30 41 54 54 q 78 66 88 114 l 190 600 q 192 610 194 618 q 196 627 196 634 q 196 660 177 666 q 158 673 135 673 l 123 673 l 133 714 l 380 714 q 494 714 556 648 q 619 581 619 456 q 619 365 595 283 q 571 201 525 137 q 479 73 412 36 q 345 0 258 0 z m 168 50 l 237 50 q 324 50 386 104 q 449 159 482 254 q 516 348 516 467 q 516 569 474 617 q 432 665 361 665 l 298 665 z"},"^":{"x_min":0,"x_max":465,"ha":465,"o":"m 48 267 l 227 714 l 258 714 l 438 267 l 380 267 l 242 623 l 106 267 z"},"0":{"x_min":0,"x_max":490,"ha":490,"o":"m 205 -11 q 132 -11 88 48 q 44 106 44 216 q 44 277 54 346 q 65 415 86 482 q 108 549 141 604 q 174 658 218 691 q 263 724 320 724 q 388 724 434 672 q 480 621 480 509 q 480 451 470 381 q 460 311 438 242 q 417 173 384 116 q 352 59 308 24 q 263 -11 205 -11 z m 213 43 q 250 43 279 76 q 308 110 329 164 q 350 219 364 284 q 378 348 385 411 q 392 474 392 524 q 392 671 312 671 q 276 671 247 638 q 218 605 197 551 q 176 497 162 433 q 148 369 141 306 q 134 243 134 193 q 134 116 155 80 q 176 43 213 43 z"},"F":{"x_min":0,"x_max":512,"ha":512,"o":"m -18 0 l -10 41 l 1 41 q 30 41 53 52 q 76 64 86 108 l 189 594 q 192 606 194 617 q 196 628 196 634 q 196 659 178 666 q 161 673 135 673 l 123 673 l 132 714 l 573 714 l 540 540 l 493 540 q 494 556 496 576 q 498 596 498 601 q 498 629 484 647 q 470 665 436 665 l 298 665 l 237 375 l 444 375 l 434 326 l 226 326 l 184 124 q 181 110 180 102 q 178 94 178 86 q 178 57 195 49 q 212 41 234 41 l 264 41 l 256 0 z"},"`":{"x_min":0,"x_max":259,"ha":259,"o":"m 256 606 q 227 638 195 680 q 163 722 144 756 l 147 766 l 239 766 q 249 736 265 693 q 281 650 294 619 l 291 606 z"},"k":{"x_min":0,"x_max":497,"ha":497,"o":"m 444 -8 q 398 -8 369 1 q 340 10 323 33 q 306 56 293 96 l 243 255 l 168 194 l 126 0 l 38 0 l 168 617 q 177 662 177 677 q 177 703 162 711 q 146 719 124 719 l 113 719 l 122 760 l 289 760 l 225 460 q 218 432 210 393 q 202 354 192 316 q 183 277 174 248 l 305 376 q 346 417 361 439 q 376 461 376 475 q 376 486 368 490 q 359 495 337 495 l 346 536 l 540 536 l 532 495 q 500 495 466 468 q 431 442 385 395 l 310 318 l 384 111 q 397 74 415 53 q 433 32 467 32 l 458 -8 z"},"u":{"x_min":0,"x_max":526,"ha":526,"o":"m 401 -10 q 360 -10 342 16 q 324 43 324 79 q 324 87 325 98 q 326 110 328 125 l 323 125 q 285 65 247 28 q 209 -9 151 -9 q 101 -9 82 22 q 62 54 62 96 q 62 122 68 154 q 74 186 80 212 l 119 387 q 123 404 126 423 q 129 442 129 453 q 129 476 114 486 q 99 495 71 495 l 63 495 l 73 536 l 240 536 l 176 237 q 169 208 162 171 q 155 134 155 110 q 155 87 163 70 q 171 52 194 52 q 216 52 241 72 q 266 93 289 127 q 312 161 330 202 q 347 243 356 284 l 409 536 l 500 536 l 430 204 q 425 182 420 151 q 416 120 416 98 q 416 51 443 51 q 456 51 469 57 q 482 63 498 74 l 514 45 q 494 26 466 8 q 437 -10 401 -10 z"},"]":{"x_min":0,"x_max":317,"ha":317,"o":"m -46 -128 l -36 -87 l 1 -87 q 29 -87 52 -74 q 76 -62 86 -15 l 227 651 q 228 658 230 667 q 231 676 231 681 q 231 705 214 712 q 196 719 171 719 l 133 719 l 143 760 l 342 760 l 154 -128 z"},"U":{"x_min":0,"x_max":631,"ha":631,"o":"m 281 -10 q 187 -10 138 34 q 88 78 88 157 q 88 174 92 204 q 96 234 100 252 l 174 602 q 176 613 178 621 q 179 629 179 634 q 179 659 162 666 q 144 673 118 673 l 107 673 l 116 714 l 374 714 l 366 673 l 354 673 q 326 673 302 660 q 278 648 268 600 l 193 247 q 181 188 181 151 q 181 101 212 75 q 242 49 298 49 q 353 49 387 70 q 421 92 440 129 q 459 166 469 214 l 552 605 q 557 622 557 634 q 557 659 540 666 q 522 673 495 673 l 484 673 l 493 714 l 711 714 l 703 673 l 692 673 q 664 673 640 660 q 616 648 606 600 l 522 203 q 501 104 442 47 q 384 -10 281 -10 z"},"o":{"x_min":0,"x_max":500,"ha":500,"o":"m 205 -10 q 133 -10 88 38 q 42 87 42 186 q 42 242 59 304 q 76 367 110 422 q 144 477 195 512 q 246 546 314 546 q 358 546 394 526 q 431 506 452 463 q 474 420 474 350 q 474 307 464 258 q 453 209 432 162 q 411 114 379 76 q 347 37 304 14 q 260 -10 205 -10 z m 217 39 q 251 39 278 61 q 304 83 323 120 q 342 157 354 200 q 367 244 373 288 q 379 331 379 367 q 379 437 358 466 q 337 496 301 496 q 267 496 240 474 q 214 451 194 414 q 175 378 162 334 q 150 290 144 246 q 137 202 137 166 q 137 97 158 68 q 180 39 217 39 z"},"N":{"x_min":0,"x_max":660,"ha":660,"o":"m -18 0 l -9 41 l 3 41 q 31 41 54 54 q 77 66 88 114 l 192 605 q 194 613 195 621 q 196 629 196 634 q 196 659 178 666 q 161 673 135 673 l 123 673 l 132 714 l 294 714 l 486 150 l 580 605 q 582 612 584 620 q 585 629 585 634 q 585 659 568 666 q 550 673 525 673 l 514 673 l 523 714 l 740 714 l 730 673 l 718 673 q 690 673 667 660 q 644 648 634 600 l 507 0 l 447 0 l 242 596 l 141 113 q 139 102 138 94 q 136 85 136 80 q 136 55 153 48 q 170 41 196 41 l 206 41 l 197 0 z"},"+":{"x_min":0,"x_max":465,"ha":465,"o":"m 213 143 l 213 329 l 60 329 l 60 386 l 213 386 l 213 572 l 272 572 l 272 386 l 426 386 l 426 329 l 272 329 l 272 143 z"},"G":{"x_min":0,"x_max":625,"ha":625,"o":"m 293 -10 q 174 -10 114 59 q 53 128 53 245 q 53 343 82 430 q 110 517 162 583 q 213 649 284 686 q 356 724 441 724 q 533 724 578 694 q 623 663 623 620 q 623 578 594 558 q 566 539 527 539 q 528 598 504 635 q 479 672 422 672 q 366 672 318 636 q 270 599 233 536 q 196 473 176 394 q 155 314 155 228 q 155 146 190 95 q 225 44 306 44 q 332 44 359 52 q 386 59 405 71 l 436 214 q 439 228 440 236 q 441 244 441 249 q 441 274 424 281 q 406 288 381 288 l 372 288 l 381 329 l 620 329 l 611 288 l 607 288 q 582 288 562 276 q 541 263 531 215 l 493 36 q 444 13 396 2 q 349 -10 293 -10 z"},"q":{"x_min":0,"x_max":492,"ha":492,"o":"m 237 -240 l 278 -40 q 281 -24 286 2 q 292 27 298 53 q 304 79 309 99 q 314 119 315 126 l 311 126 q 294 92 271 61 q 248 30 218 10 q 189 -10 151 -10 q 101 -10 72 34 q 42 78 42 161 q 42 209 54 262 q 66 315 88 365 q 111 415 144 456 q 177 496 219 520 q 261 545 311 545 q 335 546 364 540 q 392 533 411 520 l 456 546 l 487 546 l 349 -107 q 346 -122 344 -134 q 342 -146 342 -153 q 342 -182 359 -190 q 376 -199 396 -199 l 408 -199 l 399 -240 z m 186 51 q 208 51 232 72 q 256 93 278 128 q 299 163 316 204 q 333 246 342 288 l 378 466 q 373 480 356 491 q 339 502 316 502 q 281 502 252 478 q 223 453 202 413 q 180 373 166 326 q 151 279 144 234 q 136 190 136 156 q 136 100 150 76 q 164 51 186 51 z"},"d":{"x_min":0,"x_max":510,"ha":510,"o":"m 149 -10 q 92 -10 66 38 q 40 86 40 159 q 40 207 52 260 q 64 314 86 364 q 109 415 142 456 q 175 497 218 522 q 260 546 310 546 q 334 546 356 539 q 378 532 394 521 q 396 534 399 551 q 402 568 404 577 l 414 627 q 417 642 420 655 q 422 668 422 676 q 422 702 405 710 q 388 719 366 719 l 357 719 l 366 760 l 532 760 l 416 215 q 412 191 406 156 q 400 120 400 98 q 400 52 427 52 q 441 52 456 60 q 472 67 487 78 l 503 50 q 483 30 450 10 q 416 -10 378 -10 q 346 -10 328 12 q 310 34 310 76 q 310 84 312 101 q 314 118 318 139 l 314 139 q 282 68 242 29 q 202 -10 149 -10 z m 185 51 q 207 51 230 72 q 254 92 276 126 q 298 161 315 203 q 332 245 341 288 l 378 465 q 369 484 352 493 q 334 502 314 502 q 280 502 252 478 q 224 455 202 416 q 180 378 165 332 q 150 286 142 240 q 135 195 135 158 q 135 101 150 76 q 164 51 185 51 z"},"1":{"x_min":0,"x_max":490,"ha":490,"o":"m 37 0 l 45 41 l 91 41 q 120 41 143 54 q 166 66 176 113 l 254 482 q 264 532 273 572 q 282 612 291 641 l 288 641 q 243 592 213 564 q 183 537 155 537 q 137 537 128 552 q 120 566 120 589 q 150 598 182 614 q 215 629 265 666 l 335 718 l 397 718 l 270 118 q 264 91 264 80 q 264 55 281 48 q 298 41 324 41 l 370 41 l 361 0 z"},"5":{"x_min":0,"x_max":490,"ha":490,"o":"m 166 -10 q 110 -10 77 5 q 44 20 29 44 q 14 68 14 94 q 14 123 30 142 q 46 160 82 160 q 82 134 90 108 q 97 81 117 62 q 137 44 175 44 q 240 44 281 94 q 322 144 322 242 q 322 307 292 340 q 262 373 217 373 q 185 373 163 366 q 141 359 123 351 l 94 362 l 195 714 l 489 714 l 460 566 l 421 566 q 422 580 424 594 q 426 609 426 614 q 426 624 418 630 q 410 636 387 636 l 219 636 l 158 411 q 172 416 192 421 q 212 426 240 426 q 322 426 370 381 q 418 336 418 250 q 418 177 388 118 q 357 59 300 24 q 244 -10 166 -10 z"}}}
